<?xml version="1.0" encoding="UTF-8"?>
<!-- Uploaded to: SVG Find, www.svgrepo.com, Generator: SVG Find Mixer Tools -->
<svg fill="#000000" width="800px" height="800px" version="1.1" viewBox="144 144 512 512" xmlns="http://www.w3.org/2000/svg">
 <g>
  <path d="m266.29 337.73c0.45313 0.45313 1.0586 0.70703 1.7148 0.70703s1.2578-0.25 1.7148-0.70703l8.3633-8.3633c1.9141-1.9141 2.9219-4.4336 2.9219-7.1055v-9.2695c0-4.5352-3.6797-8.2617-8.2617-8.2617h-9.6211c-4.5352 0-8.2617 3.6797-8.2617 8.2617v9.2695c0 2.6719 1.0586 5.1875 2.9219 7.1055zm-6.4492-24.785c0-1.8633 1.5117-3.3242 3.3242-3.3242h9.6211c1.8633 0 3.3242 1.5117 3.3242 3.3242v9.2695c0 1.3594-0.55469 2.6719-1.5117 3.6289l-6.5977 6.6484-6.6484-6.6484c-0.95703-0.95703-1.5117-2.2656-1.5117-3.6289z"/>
  <path d="m270.62 316.67c0.50391 0 0.75391-0.60547 0.40234-0.95703l-2.6211-2.7188c-0.20312-0.20313-0.60547-0.20313-0.80469 0l-2.6211 2.7188c-0.35156 0.35156-0.10156 0.95703 0.40234 0.95703z"/>
  <path d="m269.71 345.84c-0.45312-0.45312-1.0586-0.70703-1.7148-0.70703s-1.2578 0.25-1.7148 0.70703l-8.3633 8.3633c-1.9141 1.9141-2.9219 4.4336-2.9219 7.1055v9.2695c0 4.5352 3.6797 8.2617 8.2617 8.2617h9.6211c4.5352 0 8.2617-3.6797 8.2617-8.2617v-9.2695c0-2.6719-1.0586-5.1875-2.9219-7.1055zm6.4492 24.785c0 1.8633-1.5117 3.3242-3.3242 3.3242h-9.6211c-1.8633 0-3.3242-1.5117-3.3242-3.3242v-9.2695c0-1.3594 0.55469-2.6719 1.5117-3.6289l6.6484-6.6484 6.6484 6.6484c0.95703 0.95703 1.5117 2.2656 1.5117 3.6289l-0.003906 9.2695z"/>
  <path d="m265.38 366.9c-0.50391 0-0.75391 0.60547-0.40234 0.95703l2.6211 2.7188c0.20312 0.20312 0.60547 0.20312 0.80469 0l2.6211-2.7188c0.35156-0.35156 0.10156-0.95703-0.40234-0.95703z"/>
  <path d="m272.08 340.05c-0.45312 0.45312-0.70703 1.0586-0.70703 1.7148s0.25 1.2578 0.70703 1.7148l8.3633 8.3633c1.9141 1.9141 4.4336 2.9219 7.1055 2.9219h9.2695c4.5352 0 8.2617-3.6797 8.2617-8.2617v-9.6211c0-4.5352-3.6797-8.2617-8.2617-8.2617h-9.2695c-2.6719 0-5.1875 1.0586-7.1055 2.9219zm15.465-6.3984h9.2695c1.8633 0 3.3242 1.5117 3.3242 3.3242v9.6211c0 1.8633-1.5117 3.3242-3.3242 3.3242h-9.2695c-1.3594 0-2.6719-0.55469-3.6289-1.5117l-6.6484-6.6484 6.6484-6.6484c0.96094-0.95703 2.2695-1.4609 3.6289-1.4609z"/>
  <path d="m294.1 344.83 2.7188-2.6211c0.20312-0.20313 0.20312-0.60547 0-0.80469l-2.7188-2.6211c-0.35156-0.35156-0.95703-0.10156-0.95703 0.40234v5.2891c0 0.45703 0.60547 0.70703 0.95703 0.35547z"/>
  <path d="m239.18 354.86h9.2695c2.6719 0 5.1875-1.0586 7.1055-2.9219l8.3633-8.3633c0.95703-0.95703 0.95703-2.5195 0-3.4766l-8.3633-8.3633c-1.9141-1.9141-4.4336-2.9219-7.1055-2.9219h-9.2695c-4.5352 0-8.2617 3.6797-8.2617 8.2617v9.6211c0 4.4375 3.6758 8.1641 8.2617 8.1641zm-3.375-17.883c0-1.8633 1.5117-3.3242 3.3242-3.3242h9.2695c1.3594 0 2.6719 0.55469 3.6289 1.5117l6.6484 6.6484-6.6484 6.6484c-0.95703 0.95703-2.2656 1.5117-3.6289 1.5117h-9.2695c-1.8633 0-3.3242-1.5117-3.3242-3.3242z"/>
  <path d="m241.9 344.83c0.35156 0.35156 0.95703 0.10156 0.95703-0.40234v-5.2891c0-0.50391-0.60547-0.75391-0.95703-0.40234l-2.7188 2.6211c-0.20312 0.20312-0.20312 0.60547 0 0.80469z"/>
  <path d="m332.23 372.14c-14.508 0-26.301 11.789-26.301 26.301 0 14.508 11.789 26.301 26.301 26.301 14.508 0 26.301-11.789 26.301-26.301s-11.789-26.301-26.301-26.301zm0 47.711c-11.789 0-21.41-9.6211-21.41-21.41s9.6211-21.41 21.41-21.41 21.41 9.6211 21.41 21.41c0.003907 11.789-9.6211 21.41-21.41 21.41z"/>
  <path d="m570.94 285.38c-1.5117-3.375-4.5859-5.8438-8.1602-6.6484-0.45312-0.10156-0.90625-0.20312-1.4102-0.30078v-3.9297c0-1.6133-0.70703-3.125-1.9141-4.1328-4.2812-3.6289-20.758-15.113-52.898-11.082-2.5195 0.30078-4.4844 2.3164-4.7344 4.8359l-0.35156 3.375h-0.050781c-2.0156-0.25-3.9805-0.050781-5.793 0.55469l-16.426-2.418v0.050781c-1.9141-1.3594-4.1328-2.2148-6.5-2.3672-24.184-1.9648-48.668-2.9219-72.75-2.9219s-48.516 1.0078-72.75 2.9219c-2.418 0.20313-4.6836 1.0586-6.6016 2.4688l-16.172 2.418c-1.8633-0.65625-3.8789-0.90625-5.9453-0.65625h-0.050781l-0.35156-3.375c-0.25-2.5195-2.2148-4.4844-4.7344-4.8359-32.094-4.0312-48.617 7.5078-52.898 11.082-1.2109 1.0078-1.9141 2.5195-1.9141 4.1328v3.9297c-0.50391 0.10156-0.95703 0.20312-1.4102 0.30078-3.5781 0.80469-6.6484 3.2734-8.1602 6.6484-21.059 46.805-34.562 90.785-40.203 130.74-5.9961 42.523-2.9219 79.953 9.0703 111.24 2.9727 7.707 10.027 12.543 18.188 12.543 0.35156 0 0.70703 0 1.0586-0.050781 0.95703-0.050781 1.9141-0.15234 2.8711-0.35156l17.734 1.9648c0.55469 0.050781 1.1094 0.10156 1.6641 0.10156 6.6484 0 12.645-4.332 14.66-10.73 3.9297-12.445 10.328-30.781 18.742-47.863 10.277-20.859 20.504-33.656 30.43-38.09 4.9883-2.2148 9.7227-2.2656 14.508-0.10156 9.2188 4.1328 18.289 4.9883 27.055 2.5195 3.5781-1.0078 7.3555-1.5117 11.234-1.5117h87.906c3.8789 0 7.6562 0.50391 11.234 1.5117 8.7656 2.4688 17.836 1.6133 27.055-2.5195 4.7852-2.168 9.5234-2.1172 14.508 0.10156 9.9258 4.4336 20.152 17.23 30.43 38.09 8.4141 17.078 14.812 35.469 18.742 47.863 2.0156 6.4492 8.0117 10.73 14.66 10.73 0.55469 0 1.1094-0.050782 1.6641-0.10156l17.734-1.9648c0.90625 0.20312 1.8633 0.30078 2.8711 0.35156 0.35156 0 0.70703 0.050781 1.0586 0.050781 8.1602 0 15.266-4.8359 18.188-12.543 12.043-31.285 15.062-68.719 9.0703-111.24-5.5938-40.004-19.098-83.984-40.156-130.79zm-64.188-20.809c0.050782-0.25 0.20312-0.45312 0.45312-0.45312 30.129-3.7773 45.191 6.6992 49.121 9.9766 0.10156 0.10156 0.20312 0.25 0.20312 0.40234v2.8203c-12.242-2.6211-32.547-6.8008-50.129-9.2188zm-185.05 6.9531c1.4102-1.9648 3.5781-3.1758 5.9453-3.375 24.082-1.9141 48.418-2.9219 72.348-2.9219s48.266 0.95703 72.348 2.9219c2.3672 0.20312 4.5352 1.4102 5.9453 3.375 1.4102 1.9648 1.8125 4.4336 1.2109 6.75-3.9297 14.812-10.781 42.977-12.543 64.941-0.35156 4.1797-3.8789 7.4062-8.0625 7.4062h-117.84c-4.1797 0-7.707-3.2734-8.0625-7.4062-1.7617-21.965-8.6133-50.078-12.543-64.941-0.55469-2.3672-0.10156-4.7852 1.2578-6.75zm-78.191 2.9727c0-0.15234 0.050781-0.30078 0.20312-0.40234 3.8789-3.2734 18.992-13.754 49.121-9.9766 0.25 0.050781 0.45312 0.20312 0.45312 0.45312l0.35156 3.5273c-17.582 2.418-37.887 6.6016-50.129 9.2188zm-26.551 260.47h-0.75391c-4.9883 0-10.984-2.4688-13.703-9.4219-22.922-59.703-12.191-142.07 31.035-238.2 0.85547-1.9648 2.6719-3.4258 4.7344-3.8789 11.035-2.4688 39.094-8.5156 60.809-11.184 3.9805-0.50391 7.707 1.9648 8.7656 5.8438 4.5352 15.973 12.242 45.996 13.199 67.66 0.10156 2.0664-0.60547 4.1328-2.0156 5.6914-5.9453 6.8008-21.664 25.695-39.094 55.066-21.766 36.625-38.441 76.227-49.676 117.64-1.9648 7.5586-8.1641 10.531-13.301 10.781zm344.71 1.6641c-4.9375 0.55469-9.6211-2.5195-11.133-7.2539-3.9805-12.594-10.48-31.234-18.992-48.566-10.781-21.914-21.816-35.52-32.797-40.406-6.2461-2.7695-12.496-2.8203-18.539-0.10156-8.1133 3.6797-16.07 4.4336-23.73 2.2656-4.0312-1.1602-8.2617-1.7148-12.543-1.7148l-43.938 0.003906h-43.883c-4.332 0-8.5664 0.55469-12.543 1.7148-7.6094 2.168-15.566 1.3594-23.73-2.2656-6.0469-2.7188-12.293-2.7188-18.539 0.10156-10.984 4.8867-22.016 18.488-32.797 40.406-8.5664 17.332-15.062 35.973-18.992 48.566-1.5117 4.7344-6.1953 7.8086-11.133 7.2539l-9.7227-1.0586c3.0742-2.5195 5.3398-5.9453 6.4492-10.027 25.746-95.07 73.656-154.77 87.715-170.79 2.2148-2.5195 3.375-5.793 3.2227-9.1172-1.0078-22.168-8.8164-52.598-13.402-68.77-0.50391-1.7617-1.3086-3.2734-2.3672-4.6367l6.0469-0.90625c-1.0586 2.5703-1.2578 5.4414-0.50391 8.2109 3.8789 14.66 10.629 42.523 12.395 64.086 0.25 3.2734 1.7148 6.2969 4.1328 8.5156 2.418 2.2148 5.543 3.4258 8.8164 3.4258l58.836-0.003906h58.945c3.2734 0 6.3984-1.2109 8.8164-3.4258 2.418-2.2148 3.8789-5.2383 4.1328-8.5156 1.7617-21.562 8.5156-49.422 12.395-64.086 0.75391-2.7695 0.50391-5.6914-0.55469-8.2617l6.1445 0.90625c-1.1094 1.3594-1.9141 2.9219-2.418 4.6836-4.5859 16.172-12.395 46.602-13.402 68.77-0.15234 3.375 1.0078 6.6016 3.2227 9.1172 14.055 16.02 61.969 75.723 87.715 170.79 1.1094 4.082 3.375 7.5586 6.4492 10.027zm35.82-11.035c-2.8203 7.3047-9.3203 9.6719-14.461 9.3711-5.1406-0.25-11.336-3.2227-13.352-10.781-11.234-41.414-27.91-81.012-49.676-117.64-17.434-29.371-33.152-48.316-39.094-55.066-1.3594-1.5625-2.1172-3.5781-2.0156-5.6914 1.0078-21.664 8.7148-51.691 13.199-67.66 1.0078-3.5273 4.1797-5.8945 7.7578-5.8945 0.35156 0 0.65625 0 1.0078 0.050781 21.715 2.6719 49.777 8.7148 60.809 11.184 2.1172 0.45312 3.8789 1.9141 4.7344 3.8789 43.281 96.176 54.012 178.55 31.09 238.25z"/>
  <path d="m467.76 372.14c-14.508 0-26.301 11.789-26.301 26.301 0 14.508 11.789 26.301 26.301 26.301 14.508 0 26.301-11.789 26.301-26.301-0.003906-14.512-11.793-26.301-26.301-26.301zm0 47.711c-11.789 0-21.41-9.6211-21.41-21.41s9.6211-21.41 21.41-21.41c11.789 0 21.41 9.6211 21.41 21.41s-9.6211 21.41-21.41 21.41z"/>
  <path d="m532.05 326.49c8.918 0 16.223-7.2539 16.223-16.223s-7.2539-16.223-16.223-16.223c-8.918 0-16.223 7.2539-16.223 16.223s7.3047 16.223 16.223 16.223zm0-27.508c6.2461 0 11.285 5.0898 11.285 11.285 0 6.1953-5.0898 11.285-11.285 11.285-6.2461 0-11.285-5.0898-11.285-11.285 0-6.1953 5.0391-11.285 11.285-11.285z"/>
  <path d="m532.05 355.41c-8.918 0-16.223 7.2539-16.223 16.223s7.2539 16.223 16.223 16.223c8.918 0 16.223-7.2539 16.223-16.223 0-8.9648-7.3047-16.223-16.223-16.223zm0 27.457c-6.2461 0-11.285-5.0898-11.285-11.285 0-6.2461 5.0898-11.285 11.285-11.285 6.2461 0 11.285 5.0898 11.285 11.285 0 6.25-5.0391 11.285-11.285 11.285z"/>
  <path d="m546.51 340.95c0 8.918 7.2539 16.223 16.223 16.223s16.223-7.2539 16.223-16.223-7.2539-16.223-16.223-16.223-16.223 7.3047-16.223 16.223zm27.508 0c0 6.2461-5.0898 11.285-11.285 11.285-6.1953 0-11.285-5.0898-11.285-11.285s5.0898-11.285 11.285-11.285c6.1953 0 11.285 5.0352 11.285 11.285z"/>
  <path d="m501.41 324.73c-8.918 0-16.223 7.2539-16.223 16.223s7.2539 16.223 16.223 16.223 16.223-7.2539 16.223-16.223-7.3047-16.223-16.223-16.223zm0 27.508c-6.2461 0-11.285-5.0898-11.285-11.285s5.0898-11.285 11.285-11.285c6.2461 0 11.285 5.0898 11.285 11.285s-5.0859 11.285-11.285 11.285z"/>
  <path d="m383.78 370.27c1.3594 0 2.4688-1.1094 2.4688-2.4688 0-1.3594-1.1094-2.4688-2.4688-2.4688s-2.4688 1.1094-2.4688 2.4688c0 1.3594 1.1055 2.4688 2.4688 2.4688z"/>
  <path d="m391.89 370.27c1.3594 0 2.4688-1.1094 2.4688-2.4688 0-1.3594-1.1094-2.4688-2.4688-2.4688s-2.4688 1.1094-2.4688 2.4688c0 1.3594 1.1094 2.4688 2.4688 2.4688z"/>
  <path d="m400 370.27c1.3594 0 2.4688-1.1094 2.4688-2.4688 0-1.3594-1.1094-2.4688-2.4688-2.4688s-2.4688 1.1094-2.4688 2.4688c0 1.3594 1.1055 2.4688 2.4688 2.4688z"/>
  <path d="m408.11 370.27c1.3594 0 2.4688-1.1094 2.4688-2.4688 0-1.3594-1.1094-2.4688-2.4688-2.4688s-2.4688 1.1094-2.4688 2.4688c0 1.3594 1.1094 2.4688 2.4688 2.4688z"/>
  <path d="m416.22 365.34c-1.3594 0-2.4688 1.1094-2.4688 2.4688 0 1.3594 1.1094 2.4688 2.4688 2.4688s2.4688-1.1094 2.4688-2.4688c0-1.3594-1.1094-2.4688-2.4688-2.4688z"/>
  <path d="m385.39 374.91c0 1.3594 1.1094 2.4688 2.4688 2.4688s2.4688-1.1094 2.4688-2.4688-1.1094-2.4688-2.4688-2.4688-2.4688 1.1055-2.4688 2.4688z"/>
  <path d="m393.5 374.91c0 1.3594 1.1094 2.4688 2.4688 2.4688s2.4688-1.1094 2.4688-2.4688-1.1094-2.4688-2.4688-2.4688-2.4688 1.1055-2.4688 2.4688z"/>
  <path d="m401.61 374.91c0 1.3594 1.1094 2.4688 2.4688 2.4688s2.4688-1.1094 2.4688-2.4688-1.1094-2.4688-2.4688-2.4688-2.4688 1.1055-2.4688 2.4688z"/>
  <path d="m409.72 374.91c0 1.3594 1.1094 2.4688 2.4688 2.4688s2.4688-1.1094 2.4688-2.4688-1.1094-2.4688-2.4688-2.4688c-1.3594 0.050782-2.4688 1.1055-2.4688 2.4688z"/>
  <path d="m410.33 413.35h-20.656c-4.5859 0-8.3125 3.7266-8.3125 8.3125 0 4.5859 3.7266 8.3125 8.3125 8.3125h20.656c4.5859 0 8.3125-3.7266 8.3125-8.3125 0-4.582-3.7305-8.3125-8.3125-8.3125zm0 11.691h-20.656c-1.8633 0-3.375-1.5117-3.375-3.375 0-1.8633 1.5117-3.375 3.375-3.375h20.656c1.8633 0 3.375 1.5117 3.375 3.375 0 1.8633-1.5117 3.375-3.375 3.375z"/>
 </g>
</svg>