<?xml version="1.0" encoding="UTF-8"?>
<!-- Uploaded to: SVG Find, www.svgrepo.com, Generator: SVG Find Mixer Tools -->
<svg fill="#000000" width="800px" height="800px" version="1.1" viewBox="144 144 512 512" xmlns="http://www.w3.org/2000/svg">
 <g>
  <path d="m323.07 412.75v17.078h17.531v-17.078c0-1.3086 1.0586-2.418 2.418-2.418h17.078v-17.531l-17.027-0.003906c-1.3086 0-2.418-1.0586-2.418-2.418v-17.078h-17.531v17.078c0 1.3086-1.0586 2.418-2.418 2.418h-17.078v17.531h17.078c1.3086 0.003906 2.3672 1.1094 2.3672 2.4219zm27.406-13.555c0-0.35156 0.35156-0.55469 0.65625-0.40234l4.082 2.3672c0.30078 0.15234 0.30078 0.60547 0 0.75391l-4.082 2.3672c-0.30078 0.15234-0.65625-0.050782-0.65625-0.40234zm-18.992-20.957c0.15234-0.30078 0.60547-0.30078 0.75391 0l2.3672 4.082c0.15234 0.30078-0.050781 0.65625-0.40234 0.65625h-4.7344c-0.35156 0-0.55469-0.35156-0.40234-0.65625zm-1.9648 41.969h4.7344c0.35156 0 0.55469 0.35156 0.40234 0.65625l-2.3672 4.082c-0.15234 0.30078-0.60547 0.30078-0.75391 0l-2.3672-4.082c-0.20312-0.30469 0-0.65625 0.35156-0.65625zm-16.273-16.273c0 0.35156-0.35156 0.55469-0.65625 0.40234l-4.082-2.3672c-0.30078-0.15234-0.30078-0.60547 0-0.75391l4.082-2.3672c0.30078-0.15234 0.65625 0.050781 0.65625 0.40234z"/>
  <path d="m345.54 316.32c3.9805 0 7.2031-3.2227 7.2031-7.2031s-3.2227-7.2031-7.2031-7.2031c-3.9805 0-7.2031 3.2227-7.2031 7.2031 0 3.9766 3.2227 7.2031 7.2031 7.2031z"/>
  <path d="m512.1 324.48c6.6016 0 11.941-5.3398 11.941-11.941 0-6.6016-5.3398-11.941-11.941-11.941-6.6016 0-11.941 5.3398-11.941 11.941 0 6.6016 5.3398 11.941 11.941 11.941z"/>
  <path d="m451.84 316.32c3.9805 0 7.2031-3.2227 7.2031-7.2031s-3.2227-7.2031-7.2031-7.2031c-3.9805 0-7.2031 3.2227-7.2031 7.2031 0 3.9766 3.2227 7.2031 7.2031 7.2031z"/>
  <path d="m561.82 281.8-3.8789-7.5586c-1.7148-3.2734-4.332-5.8945-7.6562-7.5586-8.8164-4.3828-28.516-12.141-61.816-14.66-3.3242-0.25-6.6016 0.45312-9.4727 1.9648l-10.027 5.3398c2.6719 0.35156 5.3398 0.75391 8.0625 1.1602 25.543 3.9297 51.34 9.875 76.578 17.734 2.8711 0.90625 5.6445 2.1172 8.2109 3.5781z"/>
  <path d="m455.37 432.7c17.684 0 32.043-14.41 32.043-32.043 0-17.684-14.41-32.043-32.043-32.043-17.633 0-32.043 14.359-32.043 32.043s14.41 32.043 32.043 32.043z"/>
  <path d="m331.03 259.34-10.027-5.3398c-2.9219-1.5625-6.1953-2.2148-9.4727-1.9648-33.25 2.5703-53 10.277-61.816 14.66-3.3242 1.6641-5.9453 4.2812-7.6562 7.5586l-3.8789 7.5586c2.5703-1.5117 5.3398-2.7188 8.2109-3.6289 25.293-7.8086 51.035-13.805 76.578-17.734 2.6719-0.35547 5.3906-0.75781 8.0625-1.1094z"/>
  <path d="m186.43 491.09c-0.35156 2.5195-0.55469 5.0391-0.55469 7.5586 0 18.238 9.7227 35.469 25.34 44.891 7.4062 4.4844 16.07 5.6445 24.383 3.2734 8.3125-2.3672 15.062-7.9102 18.992-15.617l28.363-55.367c2.2656-4.4336 5.4922-8.1602 9.2695-11.035-27.305-29.977-54.008-65.848-81.566-109.58-9.9688 42.32-17.727 91.086-24.227 135.88z"/>
  <path d="m278.88 372.64c17.684 0 32.043-14.41 32.043-32.043 0-17.684-14.41-32.043-32.043-32.043-17.633 0-32.043 14.41-32.043 32.043-0.050782 17.637 14.359 32.043 32.043 32.043z"/>
  <path d="m589.33 355.21c-27.559 43.68-54.312 79.602-81.566 109.58 3.8281 2.8711 7.0039 6.6016 9.2695 11.035l28.363 55.367c3.9297 7.707 10.68 13.25 18.992 15.617 8.3125 2.3672 16.977 1.2109 24.383-3.2734 15.617-9.4219 25.34-26.652 25.34-44.891 0-2.5195-0.20312-5.0898-0.55469-7.5586-6.4961-44.789-14.254-93.555-24.227-135.88z"/>
  <path d="m512.1 358.94c-6.6016 0-11.941 5.3398-11.941 11.941 0 6.6016 5.3398 11.941 11.941 11.941 6.6016 0 11.941-5.3398 11.941-11.941-0.003906-6.6016-5.3438-11.941-11.941-11.941z"/>
  <path d="m541.27 353.65c6.6016 0 11.941-5.3398 11.941-11.941 0-6.6016-5.3398-11.941-11.941-11.941s-11.941 5.3398-11.941 11.941c0.003906 6.6016 5.3438 11.941 11.941 11.941z"/>
  <path d="m224.93 304.93c-4.5859 13.199-8.8164 27.961-12.695 43.781 28.465 45.543 56.023 82.727 84.137 113.51 4.5352-2.418 9.6211-3.7266 14.965-3.7266h177.24c5.3398 0 10.48 1.3086 14.965 3.7266 28.113-30.781 55.672-67.914 84.137-113.51-3.8789-15.77-8.1133-30.582-12.695-43.781-3.6797-10.531-12.191-18.793-22.871-22.066-49.883-15.52-101.12-23.426-152.11-23.527-50.984 0.10156-102.22 8.0117-152.2 23.477-10.633 3.3242-19.199 11.586-22.875 22.117zm287.17 82.727c-9.2188 0-16.777-7.5078-16.777-16.777 0-9.2188 7.5078-16.777 16.777-16.777 9.2188 0 16.777 7.5078 16.777 16.777-0.003906 9.2695-7.5586 16.777-16.777 16.777zm29.168-62.676c9.2188 0 16.777 7.5078 16.777 16.777 0 9.2188-7.5078 16.777-16.777 16.777-9.2188 0-16.777-7.5078-16.777-16.777 0-9.2695 7.5078-16.777 16.777-16.777zm-29.168-29.168c9.2188 0 16.777 7.5078 16.777 16.777 0 9.2188-7.5078 16.777-16.777 16.777-9.2188 0-16.777-7.5078-16.777-16.777 0-9.2734 7.5547-16.777 16.777-16.777zm-29.172 29.168c9.2188 0 16.777 7.5078 16.777 16.777 0 9.2188-7.5078 16.777-16.777 16.777-9.2188 0-16.777-7.5078-16.777-16.777 0.050781-9.2695 7.5586-16.777 16.777-16.777zm-31.086-27.91c6.6484 0 12.043 5.3906 12.043 12.043 0 6.6484-5.3906 12.043-12.043 12.043-6.6484 0-12.043-5.3906-12.043-12.043 0.054687-6.6523 5.4453-12.043 12.043-12.043zm3.5273 66.703c20.355 0 36.879 16.523 36.879 36.879 0 20.355-16.523 36.879-36.879 36.879-20.355 0-36.879-16.523-36.879-36.879 0-20.352 16.574-36.879 36.879-36.879zm-109.83-66.703c6.6484 0 12.043 5.3906 12.043 12.043 0 6.6484-5.3906 12.043-12.043 12.043-6.6484 0-12.043-5.3906-12.043-12.043 0.003906-6.6523 5.3945-12.043 12.043-12.043zm-27.254 76.125c0-2.6211 2.1172-4.7344 4.7344-4.7344h17.734c2.6211 0 4.7344 2.1172 4.7344 4.7344v14.762h14.762c2.6211 0 4.7344 2.1172 4.7344 4.7344v17.734c0 2.6211-2.1172 4.7344-4.7344 4.7344h-14.762v14.762c0 2.6211-2.1172 4.7344-4.7344 4.7344h-17.734c-2.6211 0-4.7344-2.1172-4.7344-4.7344v-14.762h-14.762c-2.6211 0-4.7344-2.1172-4.7344-4.7344v-17.734c0-2.6211 2.1172-4.7344 4.7344-4.7344h14.762zm-39.398-69.523c20.355 0 36.879 16.523 36.879 36.879s-16.523 36.879-36.879 36.879c-20.355 0-36.879-16.523-36.879-36.879-0.050781-20.305 16.523-36.879 36.879-36.879z"/>
  <path d="m482.93 353.65c6.6016 0 11.941-5.3398 11.941-11.941 0-6.6016-5.3398-11.941-11.941-11.941-6.6016 0-11.941 5.3398-11.941 11.941 0 6.6016 5.3906 11.941 11.941 11.941z"/>
 </g>
</svg>