<?xml version="1.0" encoding="UTF-8"?>
<!-- Uploaded to: SVG Find, www.svgrepo.com, Generator: SVG Find Mixer Tools -->
<svg fill="#000000" width="800px" height="800px" version="1.1" viewBox="144 144 512 512" xmlns="http://www.w3.org/2000/svg">
 <g>
  <path d="m619.11 183.51h-438.21c-4.1797 0-7.5586 3.375-7.5586 7.5586v392.37c0 4.1797 3.375 7.5586 7.5586 7.5586l10.027-0.003906v17.984c0 4.1797 3.375 7.5586 7.5586 7.5586h50.785c4.1797 0 7.5586-3.375 7.5586-7.5586v-17.984h37.23v17.984c0 4.1797 3.375 7.5586 7.5586 7.5586h50.785c4.1797 0 7.5586-3.375 7.5586-7.5586v-17.984h80.105v17.984c0 4.1797 3.375 7.5586 7.5586 7.5586h50.785c4.1797 0 7.5586-3.375 7.5586-7.5586v-17.984h37.23v17.984c0 4.1797 3.375 7.5586 7.5586 7.5586h50.785c4.1797 0 7.5586-3.375 7.5586-7.5586v-17.984h9.9766c4.1797 0 7.5586-3.375 7.5586-7.5586l-0.015625-392.36c0.050781-4.1836-3.3281-7.5586-7.5078-7.5586zm-430.66 15.113h277.04v377.25h-277.04zm53.254 402.75h-35.672v-10.43h35.668zm103.18 0h-35.668v-10.43h35.668zm146 0h-35.668v-10.43h35.672zm103.13 0h-35.668v-10.43h35.668zm17.531-25.492h-130.94v-377.25h130.94z"/>
  <path d="m546.05 451.19c-25.242 0-45.746 22.418-45.746 50.027s20.555 50.027 45.746 50.027c25.242 0 45.746-22.418 45.746-50.027-0.003906-27.609-20.508-50.027-45.746-50.027zm0 84.941c-16.879 0-30.633-15.668-30.633-34.914s13.754-34.914 30.633-34.914c16.93 0 30.633 15.668 30.633 34.914-0.003906 19.246-13.707 34.914-30.633 34.914z"/>
  <path d="m546.05 433.96c25.242 0 45.746-22.418 45.746-50.027 0-27.559-20.555-50.027-45.746-50.027-25.242 0-45.746 22.418-45.746 50.027 0 27.605 20.504 50.027 45.746 50.027zm0-84.895c16.93 0 30.633 15.668 30.633 34.914 0 19.246-13.754 34.914-30.633 34.914-16.879 0-30.633-15.668-30.633-34.914 0-19.246 13.754-34.914 30.633-34.914z"/>
  <path d="m213.99 508.77h226.01c4.1797 0 7.5586-3.375 7.5586-7.5586l-0.003906-278.25c0-4.1797-3.375-7.5586-7.5586-7.5586h-226.01c-4.1797 0-7.5586 3.375-7.5586 7.5586v278.25c0 4.1797 3.375 7.5547 7.5586 7.5547zm53-241.27-8.4141 8.4141c-0.55469-0.30078-1.1602-0.60547-1.7617-0.85547v-12.949c3.7266 1.1094 7.1523 2.9727 10.176 5.3906zm-35.418 56.832 8.4141-8.4141c0.55469 0.30078 1.1602 0.60547 1.7617 0.85547v12.898c-3.7266-1.0586-7.1523-2.8711-10.176-5.3398zm-1.6133-37.031c-1.0586 2.6719-1.6133 5.5938-1.6133 8.6133 0 3.0234 0.60547 5.9961 1.6133 8.6133l-7.707 7.707c-0.25-0.50391-0.50391-0.95703-0.75391-1.5117v-29.621c0.20312-0.50391 0.50391-1.0078 0.75391-1.5117zm46.352-7.707c2.2656 4.8867 3.5781 10.48 3.5781 16.375 0 5.8945-1.3086 11.488-3.5781 16.375l-7.7578-7.7578c1.0586-2.6719 1.6133-5.5938 1.6133-8.6133 0-3.0234-0.60547-5.9961-1.6133-8.6133zm-32.848 16.32c0-3.9805 2.6719-7.3047 5.8438-7.3047 3.1758 0 5.8438 3.3242 5.8438 7.3047 0 3.9805-2.6719 7.3047-5.8438 7.3047s-5.8438-3.3242-5.8438-7.3047zm13.352 20.859c0.60547-0.25 1.1602-0.55469 1.7617-0.85547l8.4141 8.4141c-3.0234 2.4688-6.4492 4.2812-10.176 5.3398zm-15.113-41.664c-0.60547 0.25-1.1602 0.55469-1.7617 0.85547l-8.4141-8.4141c3.0742-2.4688 6.4492-4.2812 10.125-5.3398v12.898zm98.441 105.65v12.949l-118.59-0.003906v-12.949zm58.543 0v12.949h-43.379v-12.949zm-8.1602 51.438c21.059 0 38.492 15.668 41.414 35.922-11.387-19.547-32.547-32.695-56.73-32.695-10.984 0-19.902-8.918-19.902-19.902v-6.6484h5.3398c3.3789 13.348 15.469 23.324 29.879 23.324zm-88.871 39.648h-80.105v-9.7734h80.105c4.1797 0 7.5586-3.375 7.5586-7.5586v-28.062c0-4.1797-3.375-7.5586-7.5586-7.5586h-80.105v-10.027l97.84 0.007813v84.84h-10.227v-14.258c0.046876-4.2305-3.3789-7.6094-7.5078-7.6094zm-80.105-37.883h72.547v12.949h-72.547zm112.95-25.141h5.6445v6.6484c0 19.297 15.719 35.016 35.016 35.016 25.34 0 46.352 18.793 49.977 43.125h-90.637zm-112.95 84.84v-6.6992h72.547v6.6992zm168.98-76.578c-5.9453 0-11.082-3.3242-13.754-8.2109h29.473c4.1797 0 7.5586-3.375 7.5586-7.5586v-28.062c0-4.1797-3.375-7.5586-7.5586-7.5586h-71.742v-30.48c0.20312 0 0.40234 0.050781 0.60547 0.050781 3.6289 0 7.1523-0.70703 10.43-1.8633 3.2734 1.2109 6.6992 1.8633 10.328 1.8633 7.8594 0 15.062-3.0234 20.707-8.0625v20.859c0 2.3672 1.1094 4.5859 2.9727 5.9961 1.3086 1.0078 2.9727 1.5625 4.5859 1.5625 0.65625 0 1.3086-0.10156 1.9648-0.25l15.367-4.1328c0.50391 1.1094 1.2578 2.0664 2.2148 2.8203 1.3086 1.0078 2.9727 1.5625 4.5859 1.5625 0.65625 0 1.3086-0.10156 1.9648-0.25l22.066-5.8945v86.152c-10.332-11.441-25.195-18.543-41.77-18.543zm-55.367-137.54c9.6211 0 17.48 9.1172 17.48 20.254 0 11.133-7.8594 20.254-17.48 20.254s-17.48-9.1172-17.48-20.254c-0.003907-11.137 7.8047-20.254 17.48-20.254zm27.656 1.6602c6.1953 3.125 10.578 10.277 10.578 18.59s-4.3828 15.469-10.578 18.59c3.125-5.3906 4.9375-11.789 4.9375-18.59 0-6.8008-1.8125-13.148-4.9375-18.59zm62.172-26.551v81.062l-9.0703 2.418v-81.062zm-24.184 81.062-9.0703 2.418v-81.062l9.0703-2.418zm31.59-98.492c-0.60547 0-1.2109 0.10156-1.8125 0.25l-15.367 4.1328c-0.50391-1.1094-1.2578-2.0664-2.2148-2.8203-1.8633-1.4102-4.2812-1.9141-6.5508-1.3086l-24.184 6.5c-3.3242 0.90625-5.5938 3.8789-5.5938 7.3047v21.211c-5.6445-5.0391-12.848-8.0625-20.707-8.0625-3.6289 0-7.1055 0.70703-10.328 1.8633-3.2734-1.2109-6.75-1.8633-10.43-1.8633-0.20312 0-0.40234 0.050781-0.60547 0.050781v-33.906h97.891l0.003906 6.6484zm-113-6.7031v38.289c-10.027 6.0469-16.879 17.633-16.879 30.984 0 13.352 6.8008 24.938 16.879 30.984v34.863l-97.84 0.003906v-29.926c7.8086 6.5 17.434 10.227 27.762 10.227 25.242 0 45.746-22.418 45.746-50.027 0-27.609-20.555-50.027-45.746-50.027-10.277 0-19.949 3.7266-27.762 10.227v-25.594z"/>
  <path d="m521.47 230.52h71.691c4.1797 0 7.5586-3.375 7.5586-7.5586 0-4.1797-3.375-7.5586-7.5586-7.5586l-71.691 0.003906c-4.1797 0-7.5586 3.375-7.5586 7.5586 0 4.1797 3.375 7.5547 7.5586 7.5547z"/>
  <path d="m506.55 222.96c0 4.1719-3.3828 7.5547-7.5586 7.5547-4.1719 0-7.5547-3.3828-7.5547-7.5547 0-4.1758 3.3828-7.5586 7.5547-7.5586 4.1758 0 7.5586 3.3828 7.5586 7.5586"/>
 </g>
</svg>