<svg xmlns="http://www.w3.org/2000/svg" width="24" height="24" fill="none" viewBox="0 0 24 24" id="gaming-mouse">
  <path fill="#000" fill-rule="evenodd" d="M14.6708 2.89443C14.2485 2.68328 13.7515 2.68328 13.3292 2.89443L9.32918 4.89443C8.821 5.14852 8.5 5.66791 8.5 6.23607V16C8.5 19.0376 10.9624 21.5 14 21.5C17.0376 21.5 19.5 19.0376 19.5 16V6.23607C19.5 5.66791 19.179 5.14852 18.6708 4.89443L14.6708 2.89443ZM12.882 2C13.5858 1.64809 14.4142 1.64809 15.118 2L19.118 4C19.965 4.42348 20.5 5.28914 20.5 6.23607V16C20.5 19.5899 17.5899 22.5 14 22.5C10.4101 22.5 7.5 19.5899 7.5 16V6.23607C7.5 5.28914 8.03501 4.42348 8.88197 4L12.882 2Z" clip-rule="evenodd"></path>
  <path fill="#000" fill-rule="evenodd" d="M8.3 10.4L5.1 12.8C4.72229 13.0833 4.5 13.5279 4.5 14V16C4.5 19.0376 6.96243 21.5 10 21.5H14V22.5H10C6.41015 22.5 3.5 19.5898 3.5 16V14C3.5 13.2131 3.87049 12.4721 4.5 12L7.7 9.6 8.3 10.4zM12 6.5C12 5.39543 12.8954 4.5 14 4.5 15.1046 4.5 16 5.39543 16 6.5V7.5C16 8.60457 15.1046 9.5 14 9.5 12.8954 9.5 12 8.60457 12 7.5V6.5zM14 5.5C13.4477 5.5 13 5.94772 13 6.5V7.5C13 8.05228 13.4477 8.5 14 8.5 14.5523 8.5 15 8.05228 15 7.5V6.5C15 5.94772 14.5523 5.5 14 5.5zM20.416 10.7226C20.5692 10.9524 20.5071 11.2628 20.2774 11.416L17.7226 13.1192C17.5836 13.2119 17.5 13.368 17.5 13.5352V16C17.5 16.2761 17.2761 16.5 17 16.5 16.7239 16.5 16.5 16.2761 16.5 16V13.5352C16.5 13.0337 16.7507 12.5653 17.1679 12.2871L19.7226 10.584C19.9524 10.4308 20.2628 10.4929 20.416 10.7226z" clip-rule="evenodd"></path>
</svg>
