<?xml version="1.0" encoding="UTF-8"?>
<!-- Uploaded to: SVG Find, www.svgrepo.com, Generator: SVG Find Mixer Tools -->
<svg fill="#000000" width="800px" height="800px" version="1.1" viewBox="144 144 512 512" xmlns="http://www.w3.org/2000/svg">
 <path d="m547.87 320.4c-0.45313-81.164-66.605-147.11-147.87-147.11-81.266 0-147.42 65.949-147.87 147.11-14.965 6.0977-28.816 19.598-28.816 49.625l6.2461 75.168c3.8281 35.719 22.219 53.809 54.562 53.809 0.25 0 0.50391-0.050781 0.80469-0.050781 0.20312 0 0.35156 0.050781 0.55469 0.050781h47.66c4.1797 0 7.5586-3.375 7.5586-7.5586v-168.48c0-4.1797-3.375-7.5586-7.5586-7.5586h-39.852c0.60547-11.488 3.0234-22.469 7.0039-32.695 0.55469 0.40234 1.0586 0.85547 1.6641 1.2109 7.2539 4.1797 16.473 1.7148 20.656-5.543 15.973-27.609 45.594-44.789 77.387-44.789 31.789 0 61.414 17.18 77.387 44.789 2.8203 4.8359 7.8594 7.5586 13.098 7.5586 2.5703 0 5.1875-0.65625 7.5586-2.0156 0.60547-0.35156 1.1602-0.80469 1.6641-1.2109 3.9805 10.227 6.3477 21.211 7.0039 32.695h-39.852c-4.1797 0-7.5586 3.375-7.5586 7.5586v168.47c0 4.1797 3.375 7.5586 7.5586 7.5586h39.852c-2.5195 46.652-34.965 85.395-78.441 97.336-1.8633-5.793-7.2539-10.078-13.703-10.078h-35.621c-7.9609 0-14.461 6.5-14.461 14.461v10.883c0 7.9609 6.5 14.461 14.461 14.461h35.621c7.9609 0 14.41-6.4492 14.461-14.359 51.582-12.645 90.324-58.09 92.793-112.9 28.668-2.168 44.988-20.152 48.617-53.758l6.1953-74.363v-0.60547c0.050782-30.074-13.805-43.578-28.766-49.672zm-133.96 290.59h-34.309v-9.5742h34.309zm-135.98-127.41c-20.102-1.9648-30.18-13.855-33.152-38.594h33.152zm0-53.707h-34.461l-4.9883-60.156c0.10156-25.945 11.637-37.586 39.5-39.047v99.203zm47.66 54.008h-32.547v-8.6641h32.547zm0-23.73h-32.547v-15.113h32.547zm0-30.277h-32.547v-15.113h32.547zm0-30.23h-32.547v-15.113h32.547zm0-30.227h-32.547v-15.113h32.547zm0-38.895v8.6641h-32.547v-8.6641zm181.37 153.36h-32.547v-8.6641h32.547zm0-23.73h-32.547v-15.113h32.547zm0-30.277h-32.547v-15.113h32.547zm0-30.23h-32.547v-15.113h32.547zm0-30.227h-32.547v-15.113h32.547zm0-30.23h-32.547v-8.6641h32.547zm-106.96-140.11c-65.395 0-118.95 51.691-121.92 116.38-3.1758 0.10156-6.8008 0.35156-10.68 0.90625 2.4648-70.934 61.008-127.96 132.6-127.96 71.59 0 130.13 56.98 132.65 127.97-3.8789-0.55469-7.5586-0.80469-10.68-0.90625-3.0234-64.641-56.578-116.38-121.97-116.38zm122.07 284.5v-38.594h33.152c-2.9727 24.789-13.098 36.68-33.152 38.594zm34.512-53.707h-34.461v-99.199c27.809 1.4609 39.398 13.047 39.5 39.047z"/>
</svg>