<?xml version="1.0" encoding="UTF-8"?>
<!-- Uploaded to: SVG Find, www.svgrepo.com, Generator: SVG Find Mixer Tools -->
<svg fill="#000000" width="800px" height="800px" version="1.1" viewBox="144 144 512 512" xmlns="http://www.w3.org/2000/svg">
 <g>
  <path d="m242.56 234.69c2.0859 0 4.0898-0.83203 5.5664-2.3086 1.4766-1.4766 2.3047-3.4766 2.3047-5.5664 0.011718-10.434 4.1641-20.438 11.543-27.816s17.383-11.531 27.816-11.543h220.42c10.434 0.011719 20.438 4.1641 27.816 11.543 7.3789 7.3789 11.531 17.383 11.543 27.816v267.65c-0.035156 31.309-12.488 61.32-34.625 83.457-22.137 22.137-52.148 34.59-83.453 34.625h-94.465c-4.3477 0-7.875 3.5234-7.875 7.8711 0 4.3477 3.5273 7.875 7.875 7.875h94.465c35.48-0.042968 69.496-14.152 94.582-39.242 25.09-25.09 39.199-59.105 39.242-94.586v-267.65c-0.019531-14.609-5.8281-28.613-16.16-38.945-10.328-10.332-24.336-16.141-38.945-16.156h-220.42c-14.609 0.015624-28.613 5.8242-38.945 16.156-10.332 10.332-16.141 24.336-16.156 38.945 0 2.0898 0.82812 4.0898 2.3047 5.5664 1.4766 1.4766 3.4766 2.3086 5.5664 2.3086z"/>
  <path d="m289.79 628.29c4.3477 0 7.875-3.5273 7.875-7.875 0-4.3477-3.5273-7.8711-7.875-7.8711-10.434-0.011719-20.438-4.1641-27.816-11.543s-11.531-17.383-11.543-27.816v-299.14c0-4.3477-3.5234-7.8711-7.8711-7.8711s-7.8711 3.5234-7.8711 7.8711v299.14c0.015625 14.609 5.8242 28.617 16.156 38.945 10.332 10.332 24.336 16.141 38.945 16.16z"/>
  <path d="m494.46 344.89c2.0898 0 4.0938-0.82812 5.5664-2.3047 1.4766-1.4766 2.3086-3.4805 2.3086-5.5664v-94.465c0-2.0898-0.83203-4.0898-2.3086-5.5664-1.4727-1.4766-3.4766-2.3047-5.5664-2.3047h-188.93c-4.3477 0-7.8711 3.5234-7.8711 7.8711v157.44c0 2.0859 0.82813 4.0898 2.3047 5.5664 1.4766 1.4766 3.4766 2.3047 5.5664 2.3047h188.93c2.0898 0 4.0938-0.82812 5.5664-2.3047 1.4766-1.4766 2.3086-3.4805 2.3086-5.5664v-15.746c0-4.3477-3.5273-7.8711-7.875-7.8711-4.3477 0-7.8711 3.5234-7.8711 7.8711v7.8711h-173.18v-141.7h173.18v86.594c0 2.0859 0.83203 4.0898 2.3047 5.5664 1.4766 1.4766 3.4805 2.3047 5.5664 2.3047z"/>
  <path d="m305.54 502.34h23.617v23.617l-0.003906-0.003906c0 4.3477 3.5273 7.875 7.875 7.875 4.3477 0 7.8711-3.5273 7.8711-7.875v-23.613h23.617c4.3477 0 7.8711-3.5273 7.8711-7.875 0-4.3477-3.5234-7.8711-7.8711-7.8711h-23.617v-23.613c0-4.3477-3.5234-7.875-7.8711-7.875-4.3477 0-7.875 3.5273-7.875 7.875v23.617l-23.613-0.003906c-4.3477 0-7.8711 3.5234-7.8711 7.8711 0 4.3477 3.5234 7.875 7.8711 7.875z"/>
  <path d="m494.46 470.85c0 4.3477-3.5234 7.8711-7.8711 7.8711s-7.8711-3.5234-7.8711-7.8711 3.5234-7.8711 7.8711-7.8711 7.8711 3.5234 7.8711 7.8711"/>
  <path d="m494.46 518.08c0 4.3477-3.5234 7.8711-7.8711 7.8711s-7.8711-3.5234-7.8711-7.8711 3.5234-7.8711 7.8711-7.8711 7.8711 3.5234 7.8711 7.8711"/>
  <path d="m447.23 518.08c0 4.3477-3.5234 7.8711-7.8711 7.8711s-7.8711-3.5234-7.8711-7.8711 3.5234-7.8711 7.8711-7.8711 7.8711 3.5234 7.8711 7.8711"/>
  <path d="m447.23 470.85c0 4.3477-3.5234 7.8711-7.8711 7.8711s-7.8711-3.5234-7.8711-7.8711 3.5234-7.8711 7.8711-7.8711 7.8711 3.5234 7.8711 7.8711"/>
 </g>
</svg>