<?xml version="1.0" encoding="UTF-8"?>
<!-- Uploaded to: SVG Find, www.svgrepo.com, Generator: SVG Find Mixer Tools -->
<svg fill="#000000" width="800px" height="800px" version="1.1" viewBox="144 144 512 512" xmlns="http://www.w3.org/2000/svg">
 <g>
  <path d="m442.33 353.43c-4.6562 0-8.4648 3.8086-8.4648 8.4688 0 4.6562 3.8125 8.4648 8.4648 8.4648 4.6562 0 8.4688-3.8086 8.4688-8.4648 0-4.6602-3.8125-8.4688-8.4688-8.4688z"/>
  <path d="m442.33 387.3c-4.6562 0-8.4648 3.8086-8.4648 8.4648s3.8125 8.4688 8.4648 8.4688c4.6562 0 8.4688-3.8125 8.4688-8.4688 0-4.6602-3.8125-8.4648-8.4688-8.4648z"/>
  <path d="m442.33 455.03c-4.6562 0-8.4648 3.8086-8.4648 8.4688 0 4.6484 3.8125 8.4648 8.4648 8.4648 4.6562 0 8.4688-3.8125 8.4688-8.4648 0-4.6602-3.8125-8.4688-8.4688-8.4688z"/>
  <path d="m442.33 421.16c-4.6562 0-8.4648 3.8086-8.4648 8.4648s3.8125 8.4688 8.4648 8.4688c4.6562 0 8.4688-3.8125 8.4688-8.4688s-3.8125-8.4648-8.4688-8.4648z"/>
  <path d="m408.46 387.3c-4.6562 0-8.4648 3.8086-8.4648 8.4648s3.8086 8.4688 8.4648 8.4688 8.4688-3.8125 8.4688-8.4688c0-4.6602-3.8125-8.4648-8.4688-8.4648z"/>
  <path d="m408.46 421.16c-4.6562 0-8.4648 3.8086-8.4648 8.4648s3.8086 8.4688 8.4648 8.4688 8.4688-3.8125 8.4688-8.4688-3.8125-8.4648-8.4688-8.4648z"/>
  <path d="m306.86 370.36c4.6562 0 8.4648-3.8086 8.4648-8.4648s-3.8086-8.4688-8.4648-8.4688-8.4688 3.8086-8.4688 8.4688c0 4.6562 3.8164 8.4648 8.4688 8.4648z"/>
  <path d="m306.86 404.23c4.6562 0 8.4648-3.8125 8.4648-8.4688s-3.8086-8.4648-8.4648-8.4648-8.4688 3.8086-8.4688 8.4648 3.8164 8.4688 8.4688 8.4688z"/>
  <path d="m600.75 322.02c-1.6133-1.6055-3.7266-2.4531-6.0117-2.4531h-47.16c-4.6562 0-8.4688 3.8086-8.4688 8.4688 0 4.6562 3.8125 8.4648 8.4688 8.4648h0.17578 38.52v145.12l-100.24 15.41-14.48-7.1953c-1.1875-0.59375-2.543-0.93359-3.8125-0.93359h-135.47c-1.2734 0-2.6289 0.33594-3.8086 0.93359l-14.48 7.1953-100.24-15.41v-147.49l14.641-4.9141 4.7461 4.832c1.6055 1.6055 3.7227 2.4531 6.0117 2.4531h84.672c1.6914 0 3.293-0.50781 4.6562-1.4414l23.281-15.492h16.258l-1.6055 6.4141c-0.63672 2.5273-0.066406 5.2109 1.5352 7.2656 1.6016 2.0547 4.0664 3.2539 6.6719 3.2539h50.801c2.6055 0 5.0664-1.2031 6.6719-3.2539 1.6016-2.0547 2.1758-4.7344 1.5352-7.2656l-1.6016-6.4141h16.254l23.285 15.492c1.3438 0.93359 2.957 1.4414 4.6562 1.4414h3.6367c4.6562 0 8.4648-3.8086 8.4648-8.4648 0-4.6602-3.8086-8.4688-8.4648-8.4688h-1.0977l-23.285-15.496c-1.3555-0.92578-2.957-1.4375-4.6562-1.4375h-23.023l-2.6289-10.52c-0.94141-3.7617-4.3281-6.4141-8.2109-6.4141h-33.867c-3.8906 0-7.2695 2.6445-8.2109 6.4141l-2.6289 10.52h-23.023c-1.6914 0-3.3906 0.50781-4.7461 1.4375l-23.195 15.496h-78.66l-5.9297-6.0117c-2.2891-2.2031-5.6719-3.0547-8.7227-2.0352l-25.402 8.4648c-3.4727 1.1875-5.7539 4.4023-5.7539 8.0469v160.87c0 4.2305 3.043 7.7031 7.1953 8.3789l110.07 16.934c0.42187 0.089844 0.85156 0.089844 1.2695 0.089844 1.3594 0 2.6211-0.34375 3.8125-0.93359l15.156-7.5352h131.4l15.16 7.5352c1.5234 0.84766 3.1328 1.1016 5.0781 0.84766l110.07-16.934c4.1523-0.67578 7.1992-4.1445 7.1992-8.3789v-160.87c0-2.1992-0.85156-4.4023-2.4531-6.0117zm-211.07-19.387h20.637l2.1172 8.4688 2.1172 8.4648h-29.105l2.1172-8.4648z"/>
  <path d="m408.46 353.43c-4.6562 0-8.4648 3.8086-8.4648 8.4688 0 4.6562 3.8086 8.4648 8.4648 8.4648s8.4688-3.8086 8.4688-8.4648c0-4.6602-3.8125-8.4688-8.4688-8.4688z"/>
  <path d="m527 387.3c-4.6562 0-8.4688 3.8086-8.4688 8.4648s3.8125 8.4688 8.4688 8.4688 8.4688-3.8125 8.4688-8.4688c0-4.6602-3.8164-8.4648-8.4688-8.4648z"/>
  <path d="m527 421.16c-4.6562 0-8.4688 3.8086-8.4688 8.4648s3.8125 8.4688 8.4688 8.4688 8.4688-3.8125 8.4688-8.4688-3.8164-8.4648-8.4688-8.4648z"/>
  <path d="m527 455.03c-4.6562 0-8.4688 3.8086-8.4688 8.4688 0 4.6484 3.8125 8.4648 8.4688 8.4648s8.4688-3.8125 8.4688-8.4648c0-4.6602-3.8164-8.4688-8.4688-8.4688z"/>
  <path d="m518.53 361.89c0 4.6562 3.8125 8.4648 8.4688 8.4648s8.4688-3.8086 8.4688-8.4648-3.8125-8.4688-8.4688-8.4688-8.4688 3.8086-8.4688 8.4688z"/>
  <path d="m513.7 336.49c4.6562 0 8.4648-3.8086 8.4648-8.4648 0-4.6602-3.8086-8.4688-8.4648-8.4688s-8.4688 3.8086-8.4688 8.4688c0 4.6562 3.8125 8.4648 8.4688 8.4648z"/>
  <path d="m493.13 455.03c-4.6562 0-8.4688 3.8086-8.4688 8.4688 0 4.6484 3.8125 8.4648 8.4688 8.4648s8.4648-3.8125 8.4648-8.4648c0-4.6602-3.8086-8.4688-8.4648-8.4688z"/>
  <path d="m493.13 421.16c-4.6562 0-8.4688 3.8086-8.4688 8.4648s3.8125 8.4688 8.4688 8.4688 8.4648-3.8125 8.4648-8.4688-3.8086-8.4648-8.4648-8.4648z"/>
  <path d="m493.13 387.3c-4.6562 0-8.4688 3.8086-8.4688 8.4648s3.8125 8.4688 8.4688 8.4688 8.4648-3.8125 8.4648-8.4688c0-4.6602-3.8086-8.4648-8.4648-8.4648z"/>
  <path d="m484.66 361.89c0 4.6562 3.8125 8.4648 8.4688 8.4648s8.4648-3.8086 8.4648-8.4648-3.8086-8.4688-8.4648-8.4688-8.4688 3.8086-8.4688 8.4688z"/>
  <path d="m408.46 455.03c-4.6562 0-8.4648 3.8086-8.4648 8.4688 0 4.6484 3.8086 8.4648 8.4648 8.4648s8.4688-3.8125 8.4688-8.4648c0-4.6602-3.8125-8.4688-8.4688-8.4688z"/>
  <path d="m306.86 438.1c4.6562 0 8.4648-3.8125 8.4648-8.4688s-3.8086-8.4648-8.4648-8.4648-8.4688 3.8086-8.4688 8.4648c0 4.6523 3.8164 8.4688 8.4688 8.4688z"/>
  <path d="m239.13 455.03c-4.6562 0-8.4648 3.8086-8.4648 8.4688 0 4.6484 3.8086 8.4648 8.4648 8.4648s8.4688-3.8125 8.4688-8.4648c0-4.6602-3.8164-8.4688-8.4688-8.4688z"/>
  <path d="m272.99 387.3c-4.6484 0-8.4648 3.8086-8.4648 8.4648s3.8125 8.4688 8.4648 8.4688c4.6562 0 8.4688-3.8125 8.4688-8.4688 0-4.6602-3.8125-8.4648-8.4688-8.4648z"/>
  <path d="m272.99 353.43c-4.6484 0-8.4648 3.8086-8.4648 8.4688 0 4.6562 3.8125 8.4648 8.4648 8.4648 4.6562 0 8.4688-3.8086 8.4688-8.4648 0-4.6602-3.8125-8.4688-8.4688-8.4688z"/>
  <path d="m239.13 421.16c-4.6562 0-8.4648 3.8086-8.4648 8.4648s3.8086 8.4688 8.4648 8.4688 8.4688-3.8125 8.4688-8.4688-3.8164-8.4648-8.4688-8.4648z"/>
  <path d="m239.13 387.3c-4.6562 0-8.4648 3.8086-8.4648 8.4648s3.8086 8.4688 8.4648 8.4688 8.4688-3.8125 8.4688-8.4688c0-4.6602-3.8164-8.4648-8.4688-8.4648z"/>
  <path d="m560.86 404.23c4.6562 0 8.4688-3.8125 8.4688-8.4688s-3.8125-8.4648-8.4688-8.4648-8.4648 3.8086-8.4648 8.4648c0.003906 4.6562 3.8125 8.4688 8.4648 8.4688z"/>
  <path d="m560.86 471.96c4.6562 0 8.4688-3.8125 8.4688-8.4648 0-4.6602-3.8125-8.4688-8.4688-8.4688s-8.4648 3.8086-8.4648 8.4688c0.003906 4.6523 3.8125 8.4648 8.4648 8.4648z"/>
  <path d="m560.86 438.1c4.6562 0 8.4688-3.8125 8.4688-8.4688s-3.8125-8.4648-8.4688-8.4648-8.4648 3.8086-8.4648 8.4648c0.003906 4.6523 3.8125 8.4688 8.4648 8.4688z"/>
  <path d="m560.86 370.36c4.6562 0 8.4688-3.8086 8.4688-8.4648s-3.8125-8.4688-8.4688-8.4688-8.4648 3.8086-8.4648 8.4688c0.003906 4.6562 3.8125 8.4648 8.4648 8.4648z"/>
  <path d="m239.13 353.43c-4.6562 0-8.4648 3.8086-8.4648 8.4688 0 4.6562 3.8086 8.4648 8.4648 8.4648s8.4688-3.8086 8.4688-8.4648c0-4.6602-3.8164-8.4688-8.4688-8.4688z"/>
  <path d="m340.73 438.1c4.6562 0 8.4648-3.8125 8.4648-8.4688s-3.8086-8.4648-8.4648-8.4648-8.4688 3.8086-8.4688 8.4648c0 4.6523 3.8125 8.4688 8.4688 8.4688z"/>
  <path d="m340.73 404.23c4.6562 0 8.4648-3.8125 8.4648-8.4688s-3.8086-8.4648-8.4648-8.4648-8.4688 3.8086-8.4688 8.4648 3.8125 8.4688 8.4688 8.4688z"/>
  <path d="m340.73 370.36c4.6562 0 8.4648-3.8086 8.4648-8.4648s-3.8086-8.4688-8.4648-8.4688-8.4688 3.8086-8.4688 8.4688c0 4.6562 3.8125 8.4648 8.4688 8.4648z"/>
  <path d="m306.86 471.96h67.73c4.6797 0 8.4688-3.7891 8.4688-8.4648 0-4.6758-3.7891-8.4688-8.4688-8.4688l-67.73 0.003906c-4.6797 0-8.4688 3.7891-8.4688 8.4688 0 4.6758 3.7891 8.4609 8.4688 8.4609z"/>
  <path d="m374.6 353.43c-4.6562 0-8.4648 3.8086-8.4648 8.4688 0 4.6562 3.8086 8.4648 8.4648 8.4648s8.4688-3.8086 8.4688-8.4648c0-4.6602-3.8164-8.4688-8.4688-8.4688z"/>
  <path d="m272.99 421.16c-4.6484 0-8.4648 3.8086-8.4648 8.4648s3.8125 8.4688 8.4648 8.4688c4.6562 0 8.4688-3.8125 8.4688-8.4688s-3.8125-8.4648-8.4688-8.4648z"/>
  <path d="m272.99 455.03c-4.6484 0-8.4648 3.8086-8.4648 8.4688 0 4.6484 3.8125 8.4648 8.4648 8.4648 4.6562 0 8.4688-3.8125 8.4688-8.4648 0-4.6602-3.8125-8.4688-8.4688-8.4688z"/>
  <path d="m374.6 387.3c-4.6562 0-8.4648 3.8086-8.4648 8.4648s3.8086 8.4688 8.4648 8.4688 8.4688-3.8125 8.4688-8.4688c0-4.6602-3.8164-8.4648-8.4688-8.4648z"/>
  <path d="m374.6 421.16c-4.6562 0-8.4648 3.8086-8.4648 8.4648s3.8086 8.4688 8.4648 8.4688 8.4688-3.8125 8.4688-8.4688-3.8164-8.4648-8.4688-8.4648z"/>
 </g>
</svg>