<?xml version="1.0" encoding="UTF-8"?>
<!-- Uploaded to: SVG Find, www.svgrepo.com, Generator: SVG Find Mixer Tools -->
<svg width="800px" height="800px" version="1.1" viewBox="144 144 512 512" xmlns="http://www.w3.org/2000/svg">
 <defs>
  <clipPath id="a">
   <path d="m148.09 154h494.91v496h-494.91z"/>
  </clipPath>
 </defs>
 <g clip-path="url(#a)">
  <path d="m642.54 468.11-7.0039-161.04c-0.50391-11.586-5.2891-22.477-13.488-30.672l-20.637-20.641 5.1289-5.125c7.9336-7.9336 12.301-18.484 12.301-29.703 0-23.168-18.844-42.012-42.008-42.012-11.23 0-21.781 4.3711-29.707 12.305l-5.1328 5.125-21.199-21.199c-8.1953-8.1953-19.086-12.992-30.664-13.496l-160.85-6.9922-1.5703-0.039062c-19.629 0-43.578 12.188-46.758 46.504-0.61719 3.6055-2.4414 18.816 7.7148 31.887 8.1836 10.52 21.477 16.305 39.992 17.207h106.78c7.168 0 13.91 2.7891 18.977 7.8555l12.926 12.926-306.95 306.95c-16.375 16.383-16.375 43.039 0 59.41 7.9336 7.9375 18.484 12.316 29.707 12.316 11.227 0 21.777-4.3789 29.703-12.316l306.96-306.95 12.352 12.363c5.0664 5.0664 7.8594 11.809 7.8594 18.98l0.007813 107.25c2.1797 44.297 33.012 47.734 42.406 47.734 3.1484 0 5.5234-0.30859 6.6562-0.50391 38.98-3.5938 47.457-33.145 46.496-48.133" fill-rule="evenodd"/>
 </g>
</svg>