<?xml version="1.0" encoding="UTF-8"?>
<!-- Uploaded to: SVG Find, www.svgrepo.com, Generator: SVG Find Mixer Tools -->
<svg fill="#000000" width="800px" height="800px" version="1.1" viewBox="144 144 512 512" xmlns="http://www.w3.org/2000/svg">
 <g>
  <path d="m631.36 429.83c3.9766-48.32-7.4609-96.656-32.668-138.07-23.906-39.562-59.09-71.078-101.04-90.504-41.945-19.426-88.738-25.871-134.38-18.512-45.637 7.3594-88.031 28.191-121.74 59.816-0.92188 0.63281-1.7461 1.4023-2.4414 2.2812-21.566 20.77-38.938 45.488-51.168 72.816-0.5625 0.82031-0.98438 1.7227-1.2578 2.6758-19.367 42.824-32.75 129.42 4.0938 161.3 18.105 15.742 44.715 15.273 70.297 11.965v59.277c0.019531 17.906 7.1406 35.074 19.805 47.734 12.66 12.664 29.828 19.785 47.734 19.805h142.8c17.906-0.019531 35.074-7.1406 47.734-19.805 12.664-12.66 19.785-29.828 19.809-47.734v-59.277c48.648 7.8711 88.48-6.1406 92.34-62.977h-0.003906c0.13281-0.24219 0.16016-0.52344 0.078125-0.78906zm-22.828-15.742c-18.746-7.0469-32.754-22.961-37.363-42.449-4.6133-19.488 0.77734-39.992 14.379-54.691 15.445 29.914 23.34 63.156 22.984 96.824zm-234.11-190.11c0 60.613-80.688 82.578-111.55 30.781v-0.003907c30.547-26.746 68.258-43.957 108.48-49.512 2.0195 6.0391 3.0547 12.363 3.0703 18.734zm-150.75 152.4c-0.066406 9.5781-3.2305 18.879-9.0195 26.512-5.7891 7.6328-13.891 13.191-23.098 15.84-0.95312-26.809 3.3242-53.547 12.594-78.719 12.145 8.1289 19.461 21.754 19.523 36.367zm247.73 220.42h-142.8c-11.641-0.023437-22.801-4.6562-31.035-12.891s-12.867-19.395-12.891-31.035v-87.934c0.023437-19.031 7.5938-37.281 21.051-50.742 13.461-13.457 31.711-21.027 50.742-21.051h87.066c19.035 0.023437 37.281 7.5938 50.742 21.051 13.457 13.461 21.031 31.711 21.051 50.742v87.934c-0.019531 11.641-4.6562 22.801-12.891 31.035-8.2305 8.2344-19.391 12.867-31.035 12.891zm67.543-126.98c1.2227-26.109-8.2734-51.586-26.289-70.52-18.016-18.938-42.984-29.691-69.121-29.77h-87.066c-26.137 0.078125-51.105 10.832-69.121 29.77-18.016 18.934-27.512 44.41-26.285 70.52-36.055 4.0938-58.254 4.7227-66.52-27.395 58.961-12.988 72.027-94.07 19.129-124.3 8.543-16.855 19.293-32.5 31.961-46.523 53.922 75.57 171.45 22.277 149.57-68.328h-0.003907c35.039-0.80469 69.711 7.2344 100.82 23.371 31.109 16.141 57.648 39.859 77.168 68.969-48.805 42.902-28.891 125.95 33.297 142.25-6.8477 35.895-29.363 36.527-67.539 31.961z"/>
  <path d="m471.87 242.56c-13.051 0.019531-25.562 5.207-34.797 14.43-9.2344 9.2188-14.441 21.719-14.484 34.77 2.3633 65.18 96.195 65.18 98.48 0-0.042968-13.035-5.2383-25.527-14.457-34.742-9.2188-9.2188-21.707-14.418-34.742-14.457zm0 74.863c-8.8164-0.48828-16.766-5.4766-21.039-13.207-4.2734-7.7266-4.2734-17.109 0-24.836 4.2734-7.7266 12.223-12.715 21.039-13.203 8.8164 0.48828 16.762 5.4766 21.035 13.203 4.2734 7.7266 4.2734 17.109 0 24.836-4.2734 7.7305-12.219 12.719-21.035 13.207z"/>
  <path d="m358.91 509.03v-49.203c0-6.5195-5.2852-11.805-11.809-11.805-6.5195 0-11.809 5.2852-11.809 11.805v49.203c0 6.5195 5.2891 11.809 11.809 11.809 6.5234 0 11.809-5.2891 11.809-11.809z"/>
  <path d="m452.9 448.02c-6.5195 0-11.809 5.2852-11.809 11.805v49.203c0 6.5195 5.2891 11.809 11.809 11.809 6.5195 0 11.809-5.2891 11.809-11.809v-49.203c0-6.5195-5.2891-11.805-11.809-11.805z"/>
  <path d="m434 533.19c-5.2852-0.058594-9.957 3.4219-11.414 8.5039-7.043 3.3359-14.805 4.8789-22.59 4.4883-7.7891 0.39062-15.551-1.1523-22.594-4.4883-1.5195-5.7305-7.0469-9.4453-12.922-8.6875-5.8789 0.75781-10.285 5.7539-10.301 11.68 0 17.32 22.984 25.113 45.816 25.113 22.828 0 45.816-7.8711 45.816-25.113h-0.003906c-0.16797-6.3984-5.4062-11.496-11.809-11.496z"/>
 </g>
</svg>